<?xml version="1.0" standalone="no"?>
<!DOCTYPE svg PUBLIC "-//W3C//DTD SVG 20010904//EN"
 "http://www.w3.org/TR/2001/REC-SVG-20010904/DTD/svg10.dtd">
<svg version="1.0" xmlns="http://www.w3.org/2000/svg"
 width="1000.000000pt" height="1000.000000pt" viewBox="0 0 1000.000000 1000.000000"
 preserveAspectRatio="xMidYMid meet">

<g transform="translate(0.000000,1000.000000) scale(0.100000,-0.100000)"
fill="#000000" stroke="none">
<path d="M0 5000 l0 -5000 5000 0 5000 0 0 5000 0 5000 -5000 0 -5000 0 0
-5000z m5595 3476 c203 -29 405 -73 515 -111 426 -148 741 -411 963 -807 107
-191 176 -408 212 -668 22 -158 31 -526 16 -687 -44 -475 -210 -859 -496
-1147 -317 -320 -745 -507 -1331 -583 -114 -14 -295 -17 -1541 -20 l-1413 -4
-2 -1627 -3 -1627 -220 0 -220 0 -3 3653 -2 3653 1702 -4 c1564 -3 1713 -4
1823 -21z m2335 -6761 l0 -525 -255 0 -255 0 0 525 0 525 255 0 255 0 0 -525z"/>
<path d="M2520 6475 l0 -1645 1318 0 c789 0 1371 4 1452 10 292 22 490 71 710
176 170 82 298 171 420 293 280 281 430 647 447 1086 6 167 -5 292 -43 485
-64 323 -193 571 -408 785 -272 270 -590 409 -1019 444 -82 7 -621 11 -1503
11 l-1374 0 0 -1645z"/>
</g>
</svg>
